<svg id="chart" xmlns="http://www.w3.org/2000/svg" width="386.715" height="398.383" viewBox="0 0 386.715 398.383">
  <defs>
    <style>
      .cls-1 {
        fill: #1cc6a0;
      }

      .cls-2 {
        fill: #00669c;
      }

      .cls-10, .cls-3, .cls-5, .cls-6 {
        fill: #fff;
      }

      .cls-3 {
        font-size: 28px;
      }

      .cls-10, .cls-3, .cls-5, .cls-8 {
        font-family: OpenSans-Bold, Open Sans;
        font-weight: 700;
      }

      .cls-3, .cls-5, .cls-6 {
        isolation: isolate;
      }

      .cls-4 {
        fill: #a1a3a6;
      }

      .cls-5, .cls-6 {
        font-size: 29px;
      }

      .cls-6 {
        font-family: OpenSans, Open Sans;
      }

      .cls-7 {
        fill: #40a887;
      }

      .cls-12, .cls-8 {
        fill: #001125;
      }

      .cls-8 {
        font-size: 15px;
      }

      .cls-9 {
        fill: #0c101b;
      }

      .cls-10 {
        font-size: 27px;
      }

      .cls-11 {
        font-family: OpenSans-Light, Open Sans;
        font-weight: 300;
      }
    </style>
  </defs>
  <path id="Path_5-2" data-name="Path 5-2" class="cls-1" d="M665.1,420.52c51.438,51.439,51.438,135.139,0,186.578s-135.14,51.439-186.578,0-51.439-135.139,0-186.578l18.894,18.895A105.31,105.31,0,1,0,556.18,409.8l-3.353-26.514A131.876,131.876,0,0,1,665.1,420.52Z" transform="translate(-390.658 -296.561)"/>
  <path id="Path_6-2" data-name="Path 6-2" class="cls-2" d="M544.817,347.6l3.354,26.515a104.647,104.647,0,0,0-58.766,29.611l-18.9-18.9A131.312,131.312,0,0,1,544.817,347.6Z" transform="translate(-396.219 -290.32)"/>
  <text id="_" data-name=" " class="cls-3" transform="translate(296.961 199.691)"><tspan x="0" y="0"> </tspan></text>
  <g id="Group_665" data-name="Group 665">
    <g id="Group_662" data-name="Group 662">
      <ellipse id="Ellipse_4" data-name="Ellipse 4" class="cls-4" cx="35.587" cy="35.587" rx="35.587" ry="35.587" transform="translate(257.786 154.78)"/>
    </g>
    <text id="_90" data-name="90" class="cls-5" transform="translate(269.877 200.691)"><tspan x="0" y="0">90</tspan></text>
    <text id="_2" data-name="%" class="cls-6" transform="translate(302.273 200.691)"><tspan x="0" y="0">%</tspan></text>
  </g>
  <path id="Path_213" data-name="Path 213" class="cls-1" d="M688.946,374.743a179.969,179.969,0,0,0-128.1-53.053,183.891,183.891,0,0,0-24.191,1.6l.409,3.264a178.278,178.278,0,0,1,23.782-1.587c98.081,0,177.877,79.8,177.877,177.877S658.93,680.717,560.85,680.717,382.972,600.92,382.972,502.84a177.22,177.22,0,0,1,51.54-125.078l-2.381-2.381a181.143,181.143,0,1,0,256.815-.638Z" transform="translate(-379.7 -285.606)"/>
  <ellipse id="Ellipse_27" data-name="Ellipse 27" class="cls-1" cx="10.746" cy="10.746" rx="10.746" ry="10.746" transform="translate(236.296 38.426)"/>
  <ellipse id="Ellipse_28" data-name="Ellipse 28" class="cls-1" cx="10.746" cy="10.746" rx="10.746" ry="10.746" transform="translate(349.917 199.555)"/>
  <ellipse id="Ellipse_29" data-name="Ellipse 29" class="cls-1" cx="10.746" cy="10.746" rx="10.746" ry="10.746" transform="translate(241.042 371.01)"/>
  <line id="Line_29" data-name="Line 29" class="cls-7" y1="10.746" x2="26.051" transform="translate(360.663 199.555)"/>
  <text id="SERWIS_ZDALNY" data-name="SERWIS ZDALNY" class="cls-8" transform="translate(234.668 233.271)"><tspan x="0" y="16">SERWIS ZDALNY</tspan></text>
  <text id="SERWIS_U_KLIENTA" data-name="SERWIS 
U KLIENTA" class="cls-8" transform="translate(25.952)"><tspan x="-27.147" y="16">SERWIS </tspan><tspan x="-39.133" y="36">U KLIENTA</tspan></text>
  <g id="Group_664" data-name="Group 664">
    <g id="Group_663" data-name="Group 663">
      <ellipse id="Ellipse_4-2" data-name="Ellipse 4" class="cls-9" cx="31.087" cy="31.087" rx="31.087" ry="31.087" transform="translate(82.033 49.551)"/>
    </g>
    <text id="_10_" data-name="10%" class="cls-10" transform="translate(59.668 60.271)"><tspan x="-26.308" y="29">10</tspan><tspan class="cls-11" y="29">%</tspan></text>
  </g>
  <ellipse id="Ellipse_30" data-name="Ellipse 30" class="cls-12" cx="4.746" cy="4.746" rx="4.746" ry="4.746" transform="translate(247.042 377.01)"/>
  <ellipse id="Ellipse_31" data-name="Ellipse 31" class="cls-12" cx="4.746" cy="4.746" rx="4.746" ry="4.746" transform="translate(355.917 205.555)"/>
  <ellipse id="Ellipse_32" data-name="Ellipse 32" class="cls-12" cx="4.746" cy="4.746" rx="4.746" ry="4.746" transform="translate(242.296 44.806)"/>
</svg>
