<svg id="mobilechart" xmlns="http://www.w3.org/2000/svg" width="232.822" height="261.35" viewBox="0 0 232.822 261.35">
  <g id="Group_643" data-name="Group 643" transform="translate(-9480.589 -5089.127)">
    <g id="mobile-service-chart" transform="translate(9480.589 5089.127)">
      <g id="Group_39" data-name="Group 39" transform="translate(31.671 60.186)" style="isolation: isolate">
        <path id="Path_5-2" data-name="Path 5-2" d="M584.633,406.721a84.782,84.782,0,1,1-119.9,0l12.142,12.142a67.675,67.675,0,1,0,37.764-19.029L512.484,382.8A84.747,84.747,0,0,1,584.633,406.721Z" transform="translate(-439.941 -381.907)" fill="#1cc6a0"/>
      </g>
      <g id="Group_40" data-name="Group 40" transform="translate(47.74 42.152)">
        <path id="Path_6-2" data-name="Path 6-2" d="M518.261,347.6l2.155,17.039a67.249,67.249,0,0,0-37.764,19.029l-12.143-12.144A84.384,84.384,0,0,1,518.261,347.6Z" transform="translate(-470.509 -347.604)" fill="#00669c"/>
      </g>
      <ellipse id="Ellipse_4" data-name="Ellipse 4" cx="22.869" cy="22.869" rx="22.869" ry="22.869" transform="translate(165.66 104.806)" fill="#0c101b"/>
      <g id="Group_41" data-name="Group 41" transform="translate(173.43 114.388)" style="isolation: isolate">
        <text id="_90" data-name="90" transform="translate(0 19)" fill="#fff" font-size="18" font-family="OpenSans-Bold, Open Sans" font-weight="700" style="isolation: isolate"><tspan x="0" y="0">90</tspan></text>
        <text id="_" data-name=" " transform="translate(17.405 18)" fill="#fff" font-size="17" font-family="OpenSans-Bold, Open Sans" font-weight="700" style="isolation: isolate"><tspan x="0" y="0"> </tspan></text>
        <text id="_2" data-name="%" transform="translate(20.819 19)" fill="#fff" font-size="18" font-family="OpenSans, Open Sans" style="isolation: isolate"><tspan x="0" y="0">%</tspan></text>
      </g>
      <path id="Path_40" data-name="Path 40" d="M578.429,355.783a115.653,115.653,0,0,0-82.318-34.093,118.174,118.174,0,0,0-15.546,1.025l.263,2.1a114.515,114.515,0,1,1-65.9,32.91l-1.53-1.53a116.407,116.407,0,1,0,165.035-.41Z" transform="translate(-379.7 -293.162)" fill="#1cc6a0"/>
      <ellipse id="Ellipse_4-2" data-name="Ellipse 4" cx="19.978" cy="19.978" rx="19.978" ry="19.978" transform="translate(52.717 37.183)" fill="#0c101b"/>
      <text id="SERWIS_ZDALNY" data-name="SERWIS ZDALNY" transform="translate(148.029 155.245)" fill="#001125" font-size="12" font-family="OpenSans-Bold, Open Sans" font-weight="700"><tspan x="-21.718" y="13">SERWIS </tspan><tspan x="-24.067" y="31">ZDALNY</tspan></text>
      <text id="SERWIS_U_KLIENTA" data-name="SERWIS 
U KLIENTA" transform="translate(11.672)" fill="#001125" font-size="12" font-family="OpenSans-Bold, Open Sans" font-weight="700"><tspan x="-21.718" y="13">SERWIS </tspan><tspan x="-31.307" y="29">U KLIENTA</tspan></text>
      <text id="_10_" data-name="10%" transform="translate(38.344 44.071)" fill="#fff" font-size="19" font-family="OpenSans-Bold, Open Sans" font-weight="700"><tspan x="-18.513" y="20">10</tspan><tspan y="20" font-family="OpenSans-Light, Open Sans" font-weight="300">%</tspan></text>
      <path id="Path_39" data-name="Path 39" d="M766.478,212.781" transform="translate(-756.066 -16.258)" fill="none" stroke="#40a887" stroke-linecap="round" stroke-miterlimit="10" stroke-width="1" opacity="0.7"/>
    </g>
  </g>
</svg>
