<svg xmlns="http://www.w3.org/2000/svg" width="197.099" height="53.714" viewBox="0 0 197.099 53.714">
  <g id="Group_21" data-name="Group 21" transform="translate(1956.447 -152.319)" style="mix-blend-mode: luminosity;isolation: isolate">
    <path id="Path_29" data-name="Path 29" d="M-1696.215,196.386a4,4,0,0,1,4.889,2.852,4,4,0,0,1-2.852,4.889,26.431,26.431,0,0,1-13.638-.01,26.244,26.244,0,0,1-11.788-6.812,26.271,26.271,0,0,1-7.719-18.634,26.271,26.271,0,0,1,7.719-18.634,26.271,26.271,0,0,1,18.634-7.719,26.271,26.271,0,0,1,18.634,7.719,26.235,26.235,0,0,1,6.811,11.787,26.432,26.432,0,0,1,.009,13.637,4,4,0,0,1-4.889,2.852,4,4,0,0,1-2.852-4.889,18.475,18.475,0,0,0-.009-9.532,18.228,18.228,0,0,0-4.743-8.183,18.273,18.273,0,0,0-12.961-5.368,18.273,18.273,0,0,0-12.961,5.368,18.273,18.273,0,0,0-5.368,12.961,18.273,18.273,0,0,0,5.368,12.961,18.232,18.232,0,0,0,8.184,4.743,18.472,18.472,0,0,0,9.532.01" transform="translate(-169.773)" fill="#3c3c3b"/>
    <path id="Path_30" data-name="Path 30" d="M-1610.274,274.63a4.011,4.011,0,0,1,0-5.673,4.011,4.011,0,0,1,5.673,0l15.783,15.783a4.011,4.011,0,0,1,0,5.673,4.011,4.011,0,0,1-5.673,0Z" transform="translate(-255.631 -85.555)" fill="#a2c516"/>
    <path id="Path_31" data-name="Path 31" d="M-1842.841,207.646a8.1,8.1,0,0,0-2.435-5.869,6.935,6.935,0,0,0-5.431-2.185,6.98,6.98,0,0,0-5.275,2.154,9.516,9.516,0,0,0-2.966,5.9Zm-7.929-14.361c5.328,0,8.647,1.52,11.332,4.558s4.027,7.306,4.027,12.8c0,.263,0-.178,0,.053a2.161,2.161,0,0,1-2.213,2.383h-21.134a9.656,9.656,0,0,0,3.341,5.588,8.378,8.378,0,0,0,5.754,2.029,11.428,11.428,0,0,0,4.672-.738,12.184,12.184,0,0,0,2.069-1.1c4.168-2.755,7.471,2.344,4.315,4.8a17.434,17.434,0,0,1-4.011,2.322,19.307,19.307,0,0,1-7.732,1.27,16.812,16.812,0,0,1-8.564-2.123,14.845,14.845,0,0,1-6.026-5.963,17.959,17.959,0,0,1-2.123-8.835,17.928,17.928,0,0,1,2.154-8.867,15.254,15.254,0,0,1,6.026-6.025A15.262,15.262,0,0,1-1850.77,193.285Z" transform="translate(-66.228 -30.354)" fill="#3c3c3b"/>
    <path id="Path_32" data-name="Path 32" d="M-1445.4,217.634a8.29,8.29,0,0,0-1.945-6.019,7.477,7.477,0,0,0-5.73-2.129,10.171,10.171,0,0,0-6.518,2.26,11.08,11.08,0,0,0-3.837,5.887Zm-7.675-12.2q5.624,0,8.857,3.259a11.846,11.846,0,0,1,3.232,8.726,21.533,21.533,0,0,1-.42,4h-22.445a8.352,8.352,0,0,0,2.5,5.992,8.778,8.778,0,0,0,6.282,2.208,13.267,13.267,0,0,0,4.415-.736,11.833,11.833,0,0,0,3.732-2.1l4.6-.016a3.47,3.47,0,0,1-.471,1.091,11.225,11.225,0,0,1-2.132,2.355,15.951,15.951,0,0,1-10.3,3.455,15.24,15.24,0,0,1-7.1-1.577,11.246,11.246,0,0,1-4.7-4.468,13.193,13.193,0,0,1-1.656-6.676,15.526,15.526,0,0,1,2.05-7.911,14.807,14.807,0,0,1,5.624-5.572A15.826,15.826,0,0,1-1453.072,205.439Zm-28.239-.158q4.731,0,7.385,2.365a8.219,8.219,0,0,1,2.655,6.466,14.284,14.284,0,0,1-.315,2.891l-3.311,16.4h-4.941l3.154-15.822a8.468,8.468,0,0,0,.21-1.945,5.577,5.577,0,0,0-1.708-4.31,6.828,6.828,0,0,0-4.809-1.577,9.393,9.393,0,0,0-6.387,2.366,11.234,11.234,0,0,0-3.548,6.36l-3,14.929h-4.941l5.467-27.807,4.047,4.678A11.8,11.8,0,0,1-1481.311,205.281Z" transform="translate(-337.57 -39.243)" fill="#9c9b9b"/>
    <path id="Path_33" data-name="Path 33" d="M-1939.314,193.646a4.012,4.012,0,0,1,4.011,4.011,4.012,4.012,0,0,1-4.011,4.012h-3.453l-.031-.016c-.016,0-5.626-.106-5.626,5.673v16.188a4.012,4.012,0,0,1-4.012,4.012,4.012,4.012,0,0,1-4.012-4.012V207.326c0-13.568,12.982-13.669,13.68-13.665v-.015Z" transform="translate(0 -30.622)" fill="#3c3c3b"/>
    <path id="Path_34" data-name="Path 34" d="M-1260.92,181.335h4.889l-1.472,7.464h8.516l-.683,3.732h-8.621L-1263,215.948l-4.665-.007Z" transform="translate(-510.36 -21.5)" fill="#9c9b9b" fill-rule="evenodd"/>
  </g>
</svg>
