<svg xmlns="http://www.w3.org/2000/svg" width="204.973" height="56" viewBox="0 0 204.973 56">
  <g id="Group_6" data-name="Group 6" transform="translate(3022.505 -146.033)" style="mix-blend-mode: luminosity;isolation: isolate">
    <path id="Path_15" data-name="Path 15" d="M-2256.49,222.359l-.172.671a6.543,6.543,0,0,1-6.652,5.036,6.6,6.6,0,0,1-6.418-5.669,6.661,6.661,0,0,1,5.583-7.557,6.613,6.613,0,0,1,7.6,5.484,1.678,1.678,0,0,0,.061.2Zm-1.056-.932a5.585,5.585,0,0,0-5.566-5.585,5.6,5.6,0,0,0-5.6,5.549,5.588,5.588,0,0,0,5.583,5.6A5.585,5.585,0,0,0-2257.545,221.427Z" transform="translate(-561.042 -51.23)"/>
    <path id="Path_16" data-name="Path 16" d="M-2663.268,216.394v2.365h-12v6.278h11.217v2.379h-11.214v7.01h12.479v2.384h-15.163V216.394Z" transform="translate(-256.826 -52.446)"/>
    <path id="Path_17" data-name="Path 17" d="M-2413.694,227.4v7.015h12.487v2.371h-15.158V216.362h14.673v2.374h-12v6.28h11.217v2.38Z" transform="translate(-451.804 -52.422)"/>
    <path id="Path_18" data-name="Path 18" d="M-2757.588,216.27h.725c2.454,0,4.908-.026,7.362.014a18.712,18.712,0,0,1,3.123.286,4.974,4.974,0,0,1,4.163,4.106,6.346,6.346,0,0,1-1.394,5.824,4.971,4.971,0,0,1-3.049,1.6,23.392,23.392,0,0,1-3.154.294c-1.566.048-3.136.012-4.7.012h-.4v8.3h-2.672Zm2.668,9.718c.115.006.2.013.277.013,1.711,0,3.422.01,5.133-.008a11.3,11.3,0,0,0,1.671-.139,3.436,3.436,0,0,0,2.407-1.352,4.125,4.125,0,0,0-.1-4.566,3.268,3.268,0,0,0-2.709-1.227c-2.138-.027-4.277-.033-6.415-.046a2.247,2.247,0,0,0-.259.028Z" transform="translate(-197.464 -52.347)"/>
    <path id="Path_19" data-name="Path 19" d="M-2327.257,216.291l-2.883,3.957q-2.006,2.752-4.017,5.5a.367.367,0,0,0-.007.521q3.636,5.077,7.255,10.167c.063.088.12.181.21.316-.747,0-1.445,0-2.142,0a2.7,2.7,0,0,1-1.11-.052c-.29-.147-.448-.56-.659-.859l-5.277-7.488c-.028-.04-.062-.077-.109-.136-.046.058-.083.1-.116.146q-2.967,4.11-5.937,8.217a.394.394,0,0,1-.257.164c-1.006.011-2.011.007-3.078.007.1-.137.164-.233.233-.327q3.725-5.013,7.455-10.022a.4.4,0,0,0,.01-.571q-3.27-4.588-6.518-9.192c-.069-.1-.136-.2-.231-.333.121-.007.2-.015.273-.015.886,0,1.772-.007,2.657.007a.489.489,0,0,1,.345.165q2.188,3.053,4.354,6.121c.315.447.592.921.892,1.392a.349.349,0,0,0,.07-.055q2.761-3.732,5.522-7.462a.373.373,0,0,1,.229-.162C-2329.169,216.287-2328.245,216.291-2327.257,216.291Z" transform="translate(-504.711 -52.367)"/>
    <path id="Path_20" data-name="Path 20" d="M-2553.547,227.522v9.284h-2.662V216.391h13.692v2.368h-.386c-3.421,0-6.844,0-10.265-.006-.3,0-.4.067-.394.385.016,1.874.008,3.748.008,5.621v.352H-2544v2.41Z" transform="translate(-347.567 -52.443)"/>
    <path id="Path_21" data-name="Path 21" d="M-2484.031,216.342h2.649v18.052h10.033v2.381h-12.682Z" transform="translate(-401.367 -52.407)"/>
    <path id="Path_22" data-name="Path 22" d="M-2603.929,265.157v-2.468h7.686v2.468Z" transform="translate(-311.998 -86.953)"/>
    <path id="Path_23" data-name="Path 23" d="M-2253.921,231.418v3.038c-.35,0-.663.008-.975-.008-.057,0-.143-.1-.154-.164a2.452,2.452,0,0,1-.01-.426q0-3.054,0-6.108v-.37c.046-.034.062-.057.078-.057,1.2.015,2.4-.024,3.6.064a1.828,1.828,0,0,1,1.852,1.784,2.02,2.02,0,0,1-1.768,2.046c-.059.011-.12.017-.2.029,1.182.79,1.668,2.075,2.475,3.211-.485,0-.889.011-1.292-.009-.08,0-.175-.116-.228-.2-.478-.756-.937-1.523-1.424-2.272a1.233,1.233,0,0,0-1.008-.554C-2253.272,231.4-2253.567,231.418-2253.921,231.418Zm.023-.945c.771-.041,1.524-.039,2.264-.133a.947.947,0,0,0,.885-1.024,1.008,1.008,0,0,0-.937-.992,9.748,9.748,0,0,0-1.156-.061c-.352-.009-.7,0-1.057,0Z" transform="translate(-572.034 -60.591)"/>
    <path id="path3375" d="M-2912.931,259.525c6.33,2.913,16.13.6,21.329-4.33a22.959,22.959,0,0,0,6.868-13.523c2.322-17.849-15.833-23.649-21.578-6.584-3.165,9.4,1.814,14.548-2.317,20.526C-2910.239,257.941-2910.715,257.8-2912.931,259.525Z" transform="translate(-81.675 -58.772)" fill="#6299c4"/>
    <path id="path3377" d="M-2939.005,163.418c-.2-3.85-3.735-9.265-5.494-10.885-3.231-2.977-5.79-4.8-10.506-5.936a22.243,22.243,0,0,0-14,1.362c-16.7,7.645-11.476,25.824,6.735,21.474,11.207-2.677,11.425-11.78,23.261-6.015Z" transform="translate(-32.35)" fill="#aebe00"/>
    <path id="path3379" d="M-3014.939,210.026c-2.136.785-5.577,6.369-6.63,9.884-4.93,16.452,10.722,29.413,20.794,27.432,9.762-1.92,10.182-12.671,2.515-20.291C-3006.256,219.1-3014.94,221.763-3014.939,210.026Z" transform="translate(0 -47.699)" fill="#ed271c"/>
  </g>
</svg>
