<svg id="Serwis" xmlns="http://www.w3.org/2000/svg" width="72" height="72" viewBox="0 0 72 72">
  <g id="Group_902" data-name="Group 902" transform="translate(7 8.5)">
    <path id="Path_459" data-name="Path 459" d="M33.932,53.229,23.625,64.054H15.956V56l10.9-11.366" transform="translate(-8.823 -9.51)" fill="none" stroke="#1cc6a0" stroke-linecap="round" stroke-linejoin="bevel" stroke-width="3.7"/>
    <path id="Path_460" data-name="Path 460" d="M33.229,48.554,44.8,60.138l6.048,6.25h9v-9.3L48.428,45.27,34.178,30.542A15.912,15.912,0,0,0,30.3,15.136a12.513,12.513,0,0,0-2.875-2.1,13.246,13.246,0,0,0-7.093-1.634L16.34,15.534l6.036,6.237v5.7H16.864L10.827,21.23,7.716,24.446c-.05.244-.1.475-.137.72a13.662,13.662,0,0,0,6.633,13.89c.187.1.361.193.56.282a16.408,16.408,0,0,0,10.4.515l2,2.057,1.15,1.189" transform="translate(-7.414 -11.388)" fill="none" stroke="#1cc6a0" stroke-linecap="round" stroke-linejoin="bevel" stroke-width="3.7"/>
    <path id="Path_461" data-name="Path 461" d="M60.751,11.929" transform="translate(-8.468 -11.477)" fill="none" stroke="#1cc6a0" stroke-linecap="round" stroke-linejoin="bevel" stroke-width="3.7"/>
    <path id="Path_462" data-name="Path 462" d="M53.49,18.167l7.027-5.021,2.578,2.707-5.145,7.63a4.973,4.973,0,0,1-1.57-.5L43.855,36.149l-2.684-2.818,11.382-12" transform="translate(-5.238 -11.678)" fill="none" stroke="#1cc6a0" stroke-linecap="round" stroke-linejoin="bevel" stroke-width="3.7"/>
  </g>
  <path id="Path_207" data-name="Path 207" d="M0,0H72V72H0Z" fill="none"/>
</svg>
